<svg xmlns="http://www.w3.org/2000/svg" width="120" height="90" viewBox="0 0 120 90" role="img" aria-labelledby="t d">
<title id="t">Письмо</title><desc id="d">Конверт с руной</desc>
<style>:root{--bg:#05060f;--gold:#ffb800;--cyan:#00f0ff;--magenta:#ff2bd6;--red:#ff1a1a;--muted:#1a2140}
.fb{fill:var(--bg)}.fg{fill:var(--gold)}.fc{fill:var(--cyan)}.fm{fill:var(--magenta)}.fr{fill:var(--red)}.fu{fill:var(--muted)}
.sg{stroke:var(--gold)}.sc{stroke:var(--cyan)}.sm{stroke:var(--magenta)}.sr{stroke:var(--red)}.su{stroke:var(--muted)}.sb{stroke:var(--bg)}
.nf{fill:none}
svg{stroke-linecap:round;stroke-linejoin:round}
text{font-family:ui-monospace,SFMono-Regular,Menlo,Consolas,'Liberation Mono','DejaVu Sans Mono','Courier New',monospace;font-weight:700}
#still{display:none}
@media (prefers-reduced-motion:reduce){#live{display:none}#still{display:inline}}
</style>
<defs>
<filter id="glow" x="-30%" y="-30%" width="160%" height="160%"><feGaussianBlur in="SourceGraphic" stdDeviation="2.6" result="b"/><feMerge><feMergeNode in="b"/><feMergeNode in="b"/><feMergeNode in="SourceGraphic"/></feMerge></filter>
<filter id="glowS" x="-30%" y="-30%" width="160%" height="160%"><feGaussianBlur in="SourceGraphic" stdDeviation="1.4" result="b"/><feMerge><feMergeNode in="b"/><feMergeNode in="SourceGraphic"/></feMerge></filter>
<filter id="glowL" x="-40%" y="-40%" width="180%" height="180%"><feGaussianBlur in="SourceGraphic" stdDeviation="5" result="b"/><feMerge><feMergeNode in="b"/><feMergeNode in="SourceGraphic"/></feMerge></filter>
<filter id="grainf" x="0" y="0" width="1" height="1"><feTurbulence type="fractalNoise" baseFrequency=".85" numOctaves="1" seed="4" stitchTiles="stitch"/><feColorMatrix values="0 0 0 0 1  0 0 0 0 1  0 0 0 0 1  1.6 0 0 0 -.62"/></filter>
<pattern id="grain" width="128" height="128" patternUnits="userSpaceOnUse"><rect width="128" height="128" filter="url(#grainf)" style="fill:#fff"/></pattern>
<pattern id="scan" width="4" height="4" patternUnits="userSpaceOnUse"><rect width="4" height="1.3" class="fb"/></pattern>
<radialGradient id="gVig" cx=".5" cy=".5" r=".75"><stop offset=".55" style="stop-color:#05060f;stop-opacity:0"/><stop offset="1" style="stop-color:#05060f;stop-opacity:0.78"/></radialGradient>
<path id="r0" fill="none" d="M5,0V16M5,4L10,0M2,8H8"/><path id="r1" fill="none" d="M5,0V16M5,4L10,0M5,12L0,16"/><path id="r2" fill="none" d="M5,0V16M5,8L0,4M5,4L10,0"/><path id="r3" fill="none" d="M5,0V16M5,2L9,6L5,10L1,6ZM5,12L0,16"/><path id="r4" fill="none" d="M5,0V16M5,3L10,7M2,8H8"/><path id="r5" fill="none" d="M5,0V16M5,8L0,4M5,3L10,7"/><path id="r6" fill="none" d="M5,0V16M5,2L9,6L5,10L1,6ZM5,0L10,4L5,8M5,0L0,5L5,10"/><path id="r7" fill="none" d="M5,0V16M5,2L9,6L5,10L1,6ZM5,12L0,16"/><path id="r8" fill="none" d="M5,0V16M5,8L0,4M5,12L0,16M5,0L10,4L5,8"/><path id="r9" fill="none" d="M5,0V16M5,3L10,7M5,0L10,4L5,8M5,12L0,16"/><path id="r10" fill="none" d="M5,0V16M5,16L10,11M5,12L0,16"/><path id="r11" fill="none" d="M5,0V16M2,8H8M0,0L5,5"/><path id="r12" fill="none" d="M5,0V16M5,12L0,16M5,16L10,11"/><path id="r13" fill="none" d="M5,0V16M5,16L10,11M5,6L0,10M2,8H8"/>
</defs>
<defs><g id="env"><rect x="-12" y="-8.5" width="24" height="17" rx="2" fill="none" stroke-width="4.5" opacity=".22"/><rect x="-12" y="-8.5" width="24" height="17" rx="2" style="fill:var(--muted)"/><path d="M-12,-8.5L0,1.5L12,-8.5" fill="none"/></g></defs><g id="live"><g transform="translate(60,45)"><g filter="url(#glow)" opacity=".9"><use href="#env" class="sc" stroke-width="1.6" transform="scale(2.4)"/></g><rect x="-34" y="-24" width="68" height="48" rx="6" class="sc nf" stroke-width="7" opacity=".25"><animate attributeName="opacity" values="0.2;0.7;0.2" keyTimes="0;0.5;1" calcMode="spline" keySplines=".42 0 .58 1;.42 0 .58 1" dur="3s" begin="0s" repeatCount="indefinite" /></rect><use href="#r3" class="sg" stroke-width="2.2" transform="translate(-5,-7) scale(0.9)" /><g clip-path="url(#ec)"><rect x="-34" y="-30" width="68" height="3" class="fm" opacity="0"><animate attributeName="y" values="-30;30" keyTimes="0;1" calcMode="spline" keySplines=".42 0 .58 1" dur="2.6s" begin="0s" repeatCount="indefinite" /><animate attributeName="opacity" values="0;0.9;0.9;0" keyTimes="0;0.15;0.85;1" calcMode="spline" keySplines="0 0 1 1;0 0 1 1;0 0 1 1" dur="2.6s" begin="0s" repeatCount="indefinite" /></rect></g><clipPath id="ec"><rect x="-34" y="-24" width="68" height="48"/></clipPath></g></g><g id="still"><g transform="translate(60,45)"><g filter="url(#glow)" opacity=".9"><use href="#env" class="sc" stroke-width="1.6" transform="scale(2.4)"/></g><rect x="-34" y="-24" width="68" height="48" rx="6" class="sc nf" stroke-width="7" opacity=".25"></rect><use href="#r3" class="sg" stroke-width="2.2" transform="translate(-5,-7) scale(0.9)" /><g clip-path="url(#ec)"><rect x="-34" y="-30" width="68" height="3" class="fm" opacity="0"></rect></g><clipPath id="ec"><rect x="-34" y="-24" width="68" height="48"/></clipPath></g></g></svg>